# Blender v2.69 (sub 0) OBJ File: ''
# www.blender.org
mtllib gear.mtl
o Croc
v 0.518555 0.031250 -0.002323
v 0.456502 0.031250 0.005137
v 0.456502 -0.031250 0.005137
v 0.518555 -0.031250 -0.002323
v 0.504330 0.031250 -0.120650
v 0.504330 -0.031250 -0.120650
v 0.442277 0.031250 -0.113190
v 0.442277 -0.031250 -0.113190
v 0.397911 0.031250 -0.223802
v 0.397911 -0.031250 -0.223802
v 0.447920 0.031250 -0.261289
v 0.447920 -0.031250 -0.261289
v 0.376437 0.031250 -0.356650
v 0.376437 -0.031250 -0.356650
v 0.326428 0.031250 -0.319163
v 0.326428 -0.031250 -0.319163
v 0.232700 0.031250 -0.392774
v 0.232700 -0.031250 -0.392774
v 0.257265 0.031250 -0.450243
v 0.257265 -0.031250 -0.450243
v 0.147679 0.031250 -0.497087
v 0.147679 -0.031250 -0.497087
v 0.123113 0.031250 -0.439617
v 0.123113 -0.031250 -0.439617
v 0.005137 0.031250 -0.456502
v 0.005137 -0.031250 -0.456502
v -0.002323 0.031250 -0.518555
v -0.002323 -0.031250 -0.518555
v -0.120650 0.031250 -0.504330
v -0.120650 -0.031250 -0.504330
v -0.113190 0.031250 -0.442276
v -0.113190 -0.031250 -0.442276
v -0.223802 0.031250 -0.397911
v -0.223802 -0.031250 -0.397911
v -0.261289 0.031250 -0.447920
v -0.261289 -0.031250 -0.447920
v -0.356650 0.031250 -0.376437
v -0.356650 -0.031250 -0.376437
v -0.319163 0.031250 -0.326428
v -0.319163 -0.031250 -0.326428
v -0.392774 0.031250 -0.232700
v -0.392774 -0.031250 -0.232700
v -0.450243 0.031250 -0.257265
v -0.450243 -0.031250 -0.257265
v -0.497087 0.031250 -0.147679
v -0.497087 -0.031250 -0.147679
v -0.439617 0.031250 -0.123113
v -0.439617 -0.031250 -0.123113
v -0.456502 0.031250 -0.005137
v -0.456502 -0.031250 -0.005137
v -0.518555 0.031250 0.002323
v -0.518555 -0.031250 0.002323
v -0.504330 0.031250 0.120650
v -0.504330 -0.031250 0.120650
v -0.442276 0.031250 0.113190
v -0.442276 -0.031250 0.113189
v -0.397911 0.031250 0.223802
v -0.397911 -0.031250 0.223802
v -0.447920 0.031250 0.261289
v -0.447920 -0.031250 0.261289
v -0.376437 0.031250 0.356650
v -0.376437 -0.031250 0.356650
v -0.326428 0.031250 0.319163
v -0.326428 -0.031250 0.319163
v -0.232700 0.031250 0.392774
v -0.232700 -0.031250 0.392774
v -0.257265 0.031250 0.450243
v -0.257265 -0.031250 0.450243
v -0.147679 0.031250 0.497087
v -0.147679 -0.031250 0.497087
v -0.123113 0.031250 0.439617
v -0.123113 -0.031250 0.439617
v -0.005137 0.031250 0.456502
v -0.005137 -0.031250 0.456502
v 0.002323 0.031250 0.518555
v 0.002323 -0.031250 0.518555
v 0.120650 0.031250 0.504330
v 0.120650 -0.031250 0.504330
v 0.113190 0.031250 0.442277
v 0.113190 -0.031250 0.442277
v 0.223802 0.031250 0.397911
v 0.223802 -0.031250 0.397911
v 0.261289 0.031250 0.447920
v 0.261289 -0.031250 0.447920
v 0.356650 0.031250 0.376437
v 0.356650 -0.031250 0.376437
v 0.319163 0.031250 0.326428
v 0.319163 -0.031250 0.326428
v 0.392774 0.031250 0.232700
v 0.392774 -0.031250 0.232700
v 0.450243 0.031250 0.257265
v 0.450243 -0.031250 0.257265
v 0.497087 0.031250 0.147679
v 0.497087 -0.031250 0.147679
v 0.439617 0.031250 0.123113
v 0.439617 -0.031250 0.123113
vt 0.606777 0.240711
vt 0.636167 0.240711
vt 0.606777 0.270312
vt 0.490285 0.977539
vt 0.434243 0.977539
vt 0.490285 0.947938
vt 0.584760 0.395914
vt 0.555370 0.395914
vt 0.584760 0.366312
vt 0.555370 0.215417
vt 0.555370 0.163028
vt 0.584971 0.215417
vt 0.702111 0.163028
vt 0.725797 0.163028
vt 0.702111 0.192630
vt 0.687786 0.055165
vt 0.687786 0.010000
vt 0.717387 0.055165
vt 0.533564 0.054392
vt 0.533564 0.078078
vt 0.503963 0.054392
vt 0.533564 0.010000
vt 0.503963 0.010000
vt 0.037219 0.607304
vt 0.010000 0.607304
vt 0.037219 0.577703
vt 0.059396 0.459506
vt 0.111299 0.459506
vt 0.059396 0.489108
vt 0.606566 0.314905
vt 0.633785 0.314905
vt 0.606566 0.344507
vt 0.533564 0.092615
vt 0.533564 0.148491
vt 0.503963 0.092615
vt 0.665769 0.122216
vt 0.636379 0.122216
vt 0.665769 0.092615
vt 0.489108 0.085346
vt 0.489108 0.141388
vt 0.459506 0.085346
vt 0.658184 0.163028
vt 0.687574 0.163028
vt 0.658184 0.192630
vt 0.673249 0.010000
vt 0.673249 0.062389
vt 0.643647 0.010000
vt 0.681659 0.270312
vt 0.657973 0.270312
vt 0.681659 0.240711
vt 0.621842 0.092615
vt 0.621842 0.137780
vt 0.592240 0.092615
vt 0.010000 0.379460
vt 0.010000 0.355774
vt 0.039601 0.379460
vt 0.010000 0.423852
vt 0.039601 0.423852
vt 0.010000 0.614573
vt 0.037219 0.614573
vt 0.010000 0.644175
vt 0.533564 0.314905
vt 0.533564 0.366808
vt 0.503963 0.314905
vt 0.491060 0.910815
vt 0.463841 0.910815
vt 0.491060 0.881214
vt 0.533564 0.163028
vt 0.533564 0.218905
vt 0.503963 0.163028
vt 0.584760 0.344507
vt 0.555370 0.344507
vt 0.584760 0.314905
vt 0.010000 0.010000
vt 0.066042 0.010000
vt 0.010000 0.039601
vt 0.739193 0.010000
vt 0.768583 0.010000
vt 0.739193 0.039601
vt 0.533564 0.240711
vt 0.533564 0.293099
vt 0.503963 0.293099
vt 0.703992 0.122216
vt 0.680306 0.122216
vt 0.703992 0.092615
vt 0.636379 0.163028
vt 0.636379 0.208194
vt 0.606777 0.163028
vt 0.418464 0.533564
vt 0.394778 0.533564
vt 0.418464 0.503963
vt 0.462856 0.533564
vt 0.462856 0.503963
vt 0.010000 0.540833
vt 0.037219 0.540833
vt 0.010000 0.570434
vt 0.010000 0.111299
vt 0.010000 0.059396
vt 0.039601 0.111299
vt 0.037219 0.533564
vt 0.010000 0.533564
vt 0.037219 0.503963
vt 0.548101 0.065876
vt 0.548101 0.010000
vt 0.577703 0.065876
vt 0.503963 0.388614
vt 0.533353 0.388614
vt 0.503963 0.418215
vt 0.010000 0.487162
vt 0.010000 0.431120
vt 0.039601 0.487162
vt 0.533353 0.462354
vt 0.503963 0.462354
vt 0.533353 0.432752
vt 0.548101 0.145004
vt 0.548101 0.092615
vt 0.577703 0.145004
vt 0.790389 0.010000
vt 0.814074 0.010000
vt 0.790389 0.039601
vt 0.453975 0.598459
vt 0.453975 0.553293
vt 0.483577 0.598459
vt 0.489108 0.054392
vt 0.489108 0.078078
vt 0.459506 0.054392
vt 0.489108 0.010000
vt 0.459506 0.010000
vt 0.350381 0.531182
vt 0.350381 0.503963
vt 0.379982 0.531182
vt 0.555370 0.292613
vt 0.555370 0.240711
vt 0.584971 0.292613
vt 0.463841 0.844344
vt 0.491060 0.844344
vt 0.463841 0.873945
vt 0.592240 0.065876
vt 0.592240 0.010000
vt 0.621842 0.065876
vt 0.424751 0.878361
vt 0.445713 0.899262
vt 0.405857 0.939233
vt 0.424370 0.615104
vt 0.384896 0.918332
vt 0.481245 0.656244
vt 0.495933 0.710745
vt 0.467351 0.718448
vt 0.452663 0.663947
vt 0.496037 0.782514
vt 0.481507 0.837057
vt 0.467433 0.774894
vt 0.452903 0.829437
vt 0.217486 0.990000
vt 0.162943 0.975470
vt 0.225106 0.961396
vt 0.170563 0.946866
vt 0.281552 0.961314
vt 0.100737 0.939676
vt 0.060766 0.899820
vt 0.121638 0.918714
vt 0.081668 0.878859
vt 0.024792 0.837719
vt 0.010104 0.783218
vt 0.053374 0.830016
vt 0.038686 0.775515
vt 0.280931 0.532567
vt 0.288551 0.503963
vt 0.335474 0.547097
vt 0.060324 0.594700
vt 0.100180 0.554729
vt 0.081286 0.615601
vt 0.121141 0.575630
vt 0.053134 0.664526
vt 0.162281 0.518755
vt 0.216782 0.504067
vt 0.169984 0.547337
vt 0.224485 0.532648
vt 0.010000 0.711449
vt 0.024530 0.656906
vt 0.038604 0.719069
vt 0.384399 0.575249
vt 0.405300 0.554287
vt 0.445271 0.594142
vt 0.289255 0.989896
vt 0.336053 0.946626
vt 0.343756 0.975208
vt 0.227485 0.468019
vt 0.220139 0.496694
vt 0.165459 0.482686
vt 0.454010 0.333889
vt 0.426327 0.383080
vt 0.468019 0.279209
vt 0.496694 0.286555
vt 0.480696 0.160433
vt 0.495904 0.214791
vt 0.467398 0.222766
vt 0.338286 0.452189
vt 0.346262 0.480696
vt 0.291903 0.495904
vt 0.119838 0.083264
vt 0.168408 0.054505
vt 0.222767 0.039297
vt 0.383080 0.080367
vt 0.403780 0.059206
vt 0.423430 0.119838
vt 0.447488 0.403780
vt 0.408016 0.444130
vt 0.386856 0.423430
vt 0.080367 0.123614
vt 0.059206 0.102915
vt 0.286555 0.010000
vt 0.341235 0.024008
vt 0.333889 0.052684
vt 0.279209 0.038676
vt 0.452189 0.168408
vt 0.038675 0.227485
vt 0.010000 0.220139
vt 0.052684 0.172805
vt 0.160433 0.025998
vt 0.214791 0.010790
vt 0.054505 0.338286
vt 0.039297 0.283928
vt 0.083264 0.386856
vt 0.123614 0.426327
vt 0.062565 0.408016
vt 0.025998 0.346262
vt 0.010790 0.291903
vt 0.172805 0.454010
vt 0.636167 0.270312
vt 0.434243 0.947938
vt 0.555370 0.366312
vt 0.584971 0.163028
vt 0.725797 0.192630
vt 0.717387 0.010000
vt 0.503963 0.078078
vt 0.010000 0.577703
vt 0.111299 0.489108
vt 0.633785 0.344507
vt 0.503963 0.148491
vt 0.636379 0.092615
vt 0.459506 0.141388
vt 0.687574 0.192630
vt 0.643647 0.062389
vt 0.657973 0.240711
vt 0.592240 0.137780
vt 0.039601 0.355774
vt 0.037219 0.644175
vt 0.503963 0.366808
vt 0.463841 0.881214
vt 0.503963 0.218905
vt 0.555370 0.314905
vt 0.066042 0.039601
vt 0.768583 0.039601
vt 0.503963 0.240711
vt 0.680306 0.092615
vt 0.606777 0.208194
vt 0.394778 0.503963
vt 0.037219 0.570434
vt 0.039601 0.059396
vt 0.010000 0.503963
vt 0.577703 0.010000
vt 0.533353 0.418215
vt 0.039601 0.431120
vt 0.503963 0.432752
vt 0.577703 0.092615
vt 0.814074 0.039601
vt 0.483577 0.553293
vt 0.459506 0.078078
vt 0.379982 0.503963
vt 0.584971 0.240711
vt 0.491060 0.873945
vt 0.621842 0.010000
vt 0.343094 0.518493
vt 0.482686 0.341235
vt 0.283928 0.467398
vt 0.444130 0.098678
vt 0.098678 0.062565
vt 0.024008 0.165459
vt 0.102915 0.447488
vn 0.119360 -0.000000 0.992851
vn 0.992851 0.000000 -0.119358
vn 0.992851 -0.000001 -0.119358
vn -0.119360 0.000000 -0.992851
vn 0.928126 0.000000 -0.372267
vn 0.928126 0.000001 -0.372267
vn 0.599798 0.000000 0.800152
vn 0.800152 0.000000 -0.599798
vn 0.800152 0.000000 -0.599797
vn -0.599798 0.000000 -0.800152
vn 0.617653 0.000000 -0.786451
vn 0.617653 0.000000 -0.786450
vn 0.919518 0.000000 0.393047
vn 0.393058 0.000000 -0.919514
vn -0.919515 0.000000 -0.393054
vn 0.141678 0.000000 -0.989913
vn 0.141679 0.000000 -0.989913
vn 0.992851 0.000000 -0.119360
vn -0.119358 0.000000 -0.992851
vn -0.992851 0.000000 0.119358
vn -0.992851 0.000000 0.119359
vn -0.372260 0.000000 -0.928129
vn -0.372260 0.000000 -0.928128
vn -0.599797 0.000000 -0.800152
vn -0.800152 0.000000 0.599798
vn -0.800151 0.000000 0.599798
vn -0.786450 0.000000 -0.617653
vn -0.786451 0.000000 -0.617653
vn 0.393046 0.000000 -0.919519
vn -0.919514 0.000000 -0.393058
vn -0.393054 0.000000 0.919515
vn -0.989913 -0.000001 -0.141679
vn -0.989913 -0.000000 -0.141679
vn -0.992851 0.000001 0.119358
vn 0.119358 -0.000015 0.992851
vn 0.119366 -0.000008 0.992850
vn -0.928129 -0.000002 0.372258
vn -0.928128 -0.000006 0.372260
vn -0.928129 -0.000004 0.372259
vn -0.800152 0.000000 0.599797
vn 0.599797 0.000000 0.800152
vn -0.617653 0.000000 0.786451
vn -0.919519 0.000000 -0.393046
vn -0.393059 0.000000 0.919513
vn 0.919515 0.000000 0.393054
vn -0.141679 0.000000 0.989913
vn -0.992851 0.000000 0.119361
vn -0.992851 0.000000 0.119360
vn 0.119358 0.000000 0.992851
vn 0.372267 0.000000 0.928126
vn 0.786451 0.000000 0.617653
vn -0.393047 0.000000 0.919519
vn -0.393047 0.000000 0.919518
vn 0.919513 0.000000 0.393059
vn 0.393054 0.000000 -0.919515
vn 0.989913 0.000001 0.141678
vn 0.989913 0.000000 0.141678
vn -0.000000 1.000000 0.000000
vn 0.000000 -1.000000 -0.000000
vn -0.119361 0.000000 -0.992851
vn 0.617654 0.000000 -0.786450
vn 0.919519 0.000000 0.393047
vn 0.393059 0.000000 -0.919513
vn 0.119373 -0.000000 0.992849
vn -0.928129 0.000000 0.372257
vn -0.141678 0.000000 0.989913
vn 0.992851 0.000000 -0.119361
vn 0.393054 0.000000 -0.919516
usemtl Material__25
s 1
f 1/1/1 2/2/1 4/3/1
f 5/4/2 1/5/3 6/6/2
f 7/7/4 5/8/4 8/9/4
f 9/10/5 7/11/6 10/12/5
f 11/13/7 9/14/7 12/15/7
f 13/16/8 11/17/9 14/18/9
f 15/19/10 13/20/10 16/21/10
f 17/22/11 15/19/12 18/23/11
f 19/24/13 17/25/13 20/26/13
f 21/27/14 19/28/14 22/29/14
f 23/30/15 21/31/15 24/32/15
f 25/33/16 23/34/17 26/35/16
f 27/36/18 25/37/18 28/38/18
f 29/39/19 27/40/19 30/41/19
f 31/42/20 29/43/21 32/44/21
f 33/45/22 31/46/23 34/47/23
f 35/48/8 33/49/8 36/50/8
f 37/51/24 35/52/24 38/53/24
f 39/54/25 37/55/26 40/56/26
f 41/57/27 39/54/28 42/58/28
f 43/59/29 41/60/29 44/61/29
f 45/62/30 43/63/30 46/64/30
f 47/65/31 45/66/31 48/67/31
f 49/68/32 47/69/33 50/70/32
f 51/71/4 49/72/4 52/73/4
f 53/74/20 51/75/34 54/76/20
f 55/77/35 53/78/36 56/79/36
f 57/80/37 55/81/38 56/82/39
f 59/83/24 57/84/24 60/85/24
f 61/86/40 59/87/40 62/88/40
f 63/89/7 61/90/41 64/91/41
f 65/92/42 63/89/42 66/93/42
f 67/94/43 65/95/43 68/96/43
f 69/97/44 67/98/44 70/99/44
f 71/100/45 69/101/45 72/102/45
f 73/103/46 71/104/46 74/105/46
f 75/106/47 73/107/48 76/108/48
f 77/109/49 75/110/49 78/111/49
f 79/112/18 77/113/18 80/114/18
f 81/115/50 79/116/50 82/117/50
f 83/118/40 81/119/40 84/120/40
f 85/121/41 83/122/41 86/123/41
f 87/124/9 85/125/9 88/126/9
f 89/127/51 87/124/51 90/128/51
f 91/129/52 89/130/53 92/131/53
f 93/132/54 91/133/54 94/134/54
f 95/135/55 93/136/55 96/137/55
f 2/138/56 95/139/57 3/140/56
f 41/141/58 43/142/58 45/143/58
f 23/144/58 41/141/58 47/145/58
f 27/146/58 29/147/58 31/148/58
f 25/149/58 31/148/58 23/144/58
f 35/150/58 37/151/58 33/152/58
f 33/152/58 39/153/58 23/144/58
f 59/154/58 61/155/58 57/156/58
f 57/156/58 63/157/58 55/158/58
f 67/159/58 69/160/58 65/161/58
f 65/161/58 71/162/58 55/158/58
f 75/163/58 77/164/58 73/165/58
f 73/165/58 79/166/58 55/158/58
f 9/167/58 11/168/58 15/169/58
f 91/170/58 93/171/58 89/172/58
f 89/172/58 95/173/58 87/174/58
f 1/175/58 5/176/58 2/177/58
f 2/177/58 7/178/58 87/174/58
f 87/174/58 9/167/58 55/158/58
f 83/179/58 85/180/58 81/181/58
f 81/181/58 87/174/58 55/158/58
f 55/158/58 15/169/58 17/182/58
f 19/183/58 21/184/58 17/182/58
f 55/158/58 23/144/58 53/185/58
f 53/185/58 49/186/58 51/187/58
f 24/188/59 22/189/59 20/190/59
f 42/191/59 40/192/59 24/188/59
f 48/193/59 46/194/59 42/191/59
f 54/195/59 52/196/59 50/197/59
f 32/198/59 30/199/59 28/200/59
f 82/201/59 80/202/59 74/203/59
f 64/204/59 62/205/59 58/206/59
f 38/207/59 36/208/59 40/192/59
f 24/188/59 34/209/59 32/198/59
f 88/210/59 86/211/59 82/201/59
f 70/212/59 68/213/59 66/214/59
f 72/215/59 66/214/59 56/216/59
f 56/216/59 64/204/59 58/206/59
f 48/193/59 42/191/59 24/188/59
f 50/197/59 20/190/59 56/216/59
f 96/217/59 94/218/59 90/219/59
f 78/220/59 76/221/59 74/203/59
f 8/222/59 3/223/59 88/210/59
f 10/224/59 88/210/59 72/215/59
f 10/224/59 16/225/59 12/226/59
f 6/227/59 4/228/59 3/223/59
f 88/210/59 3/223/59 96/217/59
f 88/210/59 82/201/59 72/215/59
f 16/225/59 72/215/59 18/229/59
f 2/2/1 3/230/1 4/3/1
f 1/5/3 4/231/3 6/6/2
f 5/8/4 6/232/60 8/9/4
f 7/11/6 8/233/6 10/12/5
f 9/14/7 10/234/41 12/15/7
f 11/17/9 12/235/9 14/18/9
f 13/20/10 14/236/10 16/21/10
f 15/19/12 16/21/61 18/23/11
f 17/25/13 18/237/62 20/26/13
f 19/28/14 20/238/63 22/29/14
f 21/31/15 22/239/15 24/32/15
f 23/34/17 24/240/17 26/35/16
f 25/37/18 26/241/18 28/38/18
f 27/40/19 28/242/19 30/41/19
f 29/43/21 30/243/21 32/44/21
f 31/46/23 32/244/23 34/47/23
f 33/49/8 34/245/8 36/50/8
f 35/52/24 36/246/24 38/53/24
f 37/55/26 38/247/26 40/56/26
f 39/54/28 40/56/28 42/58/28
f 41/60/29 42/248/29 44/61/29
f 43/63/30 44/249/30 46/64/30
f 45/66/31 46/250/31 48/67/31
f 47/69/33 48/251/33 50/70/32
f 49/72/4 50/252/4 52/73/4
f 51/75/34 52/253/34 54/76/20
f 53/78/36 54/254/64 56/79/36
f 58/255/65 57/80/37 56/82/39
f 57/84/24 58/256/24 60/85/24
f 59/87/40 60/257/40 62/88/40
f 61/90/41 62/258/41 64/91/41
f 63/89/42 64/91/42 66/93/42
f 65/95/43 66/259/43 68/96/43
f 67/98/44 68/260/44 70/99/44
f 69/101/45 70/261/45 72/102/45
f 71/104/46 72/262/66 74/105/46
f 73/107/48 74/263/48 76/108/48
f 75/110/49 76/264/49 78/111/49
f 77/113/18 78/265/67 80/114/18
f 79/116/50 80/266/50 82/117/50
f 81/119/40 82/267/40 84/120/40
f 83/122/41 84/268/41 86/123/41
f 85/125/9 86/269/8 88/126/9
f 87/124/51 88/126/51 90/128/51
f 89/130/53 90/270/53 92/131/53
f 91/133/54 92/271/54 94/134/54
f 93/136/55 94/272/68 96/137/55
f 95/139/57 96/273/57 3/140/56
f 47/145/58 41/141/58 45/143/58
f 49/186/58 23/144/58 47/145/58
f 25/149/58 27/146/58 31/148/58
f 31/148/58 33/152/58 23/144/58
f 37/151/58 39/153/58 33/152/58
f 39/153/58 41/141/58 23/144/58
f 61/155/58 63/157/58 57/156/58
f 63/157/58 65/161/58 55/158/58
f 69/160/58 71/162/58 65/161/58
f 71/162/58 73/165/58 55/158/58
f 77/164/58 79/166/58 73/165/58
f 79/166/58 81/181/58 55/158/58
f 11/168/58 13/274/58 15/169/58
f 93/171/58 95/173/58 89/172/58
f 95/173/58 2/177/58 87/174/58
f 5/176/58 7/178/58 2/177/58
f 7/178/58 9/167/58 87/174/58
f 9/167/58 15/169/58 55/158/58
f 85/180/58 87/174/58 81/181/58
f 23/144/58 55/158/58 17/182/58
f 21/184/58 23/144/58 17/182/58
f 23/144/58 49/186/58 53/185/58
f 50/197/59 24/188/59 20/190/59
f 40/192/59 34/209/59 24/188/59
f 46/194/59 44/275/59 42/191/59
f 56/216/59 54/195/59 50/197/59
f 26/276/59 32/198/59 28/200/59
f 72/215/59 82/201/59 74/203/59
f 62/205/59 60/277/59 58/206/59
f 36/208/59 34/209/59 40/192/59
f 26/276/59 24/188/59 32/198/59
f 86/211/59 84/278/59 82/201/59
f 72/215/59 70/212/59 66/214/59
f 66/214/59 64/204/59 56/216/59
f 50/197/59 48/193/59 24/188/59
f 20/190/59 18/229/59 56/216/59
f 94/218/59 92/279/59 90/219/59
f 80/202/59 78/220/59 74/203/59
f 10/224/59 8/222/59 88/210/59
f 16/225/59 10/224/59 72/215/59
f 16/225/59 14/280/59 12/226/59
f 8/222/59 6/227/59 3/223/59
f 90/219/59 88/210/59 96/217/59
f 72/215/59 56/216/59 18/229/59
