# Blender v2.69 (sub 0) OBJ File: ''
# www.blender.org
mtllib gear.mtl
o Croc
v 0.095544 0.006250 0.040319
v 0.096958 0.006250 0.052083
v 0.096958 -0.000000 0.052083
v 0.095544 -0.000000 0.040319
v 0.084026 0.006250 0.019841
v 0.091133 0.006250 0.029322
v 0.091133 -0.000000 0.029322
v 0.084026 -0.000000 0.019841
v 0.063812 0.006250 0.007866
v 0.074707 0.006250 0.012523
v 0.074707 -0.000000 0.012523
v 0.063812 -0.000000 0.007866
v 0.040319 0.006250 0.007601
v 0.052083 0.006250 0.006187
v 0.052083 -0.000000 0.006187
v 0.040319 -0.000000 0.007601
v 0.019841 0.006250 0.019119
v 0.029322 0.006250 0.012012
v 0.029322 -0.000000 0.012012
v 0.019841 -0.000000 0.019119
v 0.007866 0.006250 0.039332
v 0.012523 0.006250 0.028437
v 0.012523 -0.000000 0.028437
v 0.007866 -0.000000 0.039332
v 0.007601 0.006250 0.062826
v 0.006187 0.006250 0.051062
v 0.006187 -0.000000 0.051062
v 0.007601 -0.000000 0.062826
v 0.019119 0.006250 0.083304
v 0.012012 0.006250 0.073823
v 0.012012 -0.000000 0.073823
v 0.019119 -0.000000 0.083304
v 0.039332 0.006250 0.095279
v 0.028437 0.006250 0.090622
v 0.028437 -0.000000 0.090622
v 0.039332 -0.000000 0.095279
v 0.062826 0.006250 0.095544
v 0.051062 0.006250 0.096958
v 0.051062 -0.000000 0.096958
v 0.062826 -0.000000 0.095544
v 0.083304 0.006250 0.084026
v 0.073823 0.006250 0.091133
v 0.073823 -0.000000 0.091133
v 0.083304 -0.000000 0.084026
v 0.095279 0.006250 0.063812
v 0.090622 0.006250 0.074707
v 0.090622 -0.000000 0.074707
v 0.095279 -0.000000 0.063812
v 0.101344 0.006250 0.037992
v 0.096933 0.006250 0.026995
v 0.065152 0.006250 0.101344
v 0.076149 0.006250 0.096933
v 0.001679 0.006250 0.038447
v 0.000000 0.006250 0.050176
v 0.101466 0.006250 0.064698
v 0.103145 0.006250 0.052969
v 0.015259 0.006250 0.088219
v 0.024577 0.006250 0.095537
v 0.038447 0.006250 0.101466
v 0.050176 0.006250 0.103145
v 0.001800 0.006250 0.065152
v 0.006211 0.006250 0.076149
v 0.064698 0.006250 0.001679
v 0.052969 0.006250 0.000000
v 0.037992 0.006250 0.001800
v 0.026995 0.006250 0.006211
v 0.014926 0.006250 0.015259
v 0.007607 0.006250 0.024577
v 0.088219 0.006250 0.087886
v 0.095537 0.006250 0.078568
v 0.087886 0.006250 0.014926
v 0.078568 0.006250 0.007607
v 0.052969 0.000000 0.000000
v 0.064698 -0.000000 0.001679
v 0.078568 -0.000000 0.007607
v 0.087886 -0.000000 0.014926
v 0.103145 -0.000000 0.052969
v 0.101466 -0.000000 0.064698
v 0.026995 -0.000000 0.006211
v 0.037992 -0.000000 0.001800
v 0.007607 -0.000000 0.024577
v 0.014926 -0.000000 0.015259
v 0.095537 -0.000000 0.078568
v 0.088219 -0.000000 0.087886
v 0.024577 -0.000000 0.095537
v 0.015259 -0.000000 0.088219
v 0.096933 -0.000000 0.026995
v 0.101344 -0.000000 0.037992
v 0.050176 -0.000000 0.103145
v 0.038447 -0.000000 0.101466
v 0.076149 -0.000000 0.096933
v 0.065152 -0.000000 0.101344
v 0.000000 -0.000000 0.050176
v 0.001679 -0.000000 0.038447
v 0.006211 -0.000000 0.076149
v 0.001800 -0.000000 0.065152
vt 0.503700 0.239463
vt 0.503700 0.183448
vt 0.533459 0.239463
vt 0.440229 0.039759
vt 0.395086 0.039759
vt 0.440229 0.010000
vt 0.717934 0.010000
vt 0.717934 0.061877
vt 0.688174 0.010000
vt 0.010000 0.947914
vt 0.066015 0.947914
vt 0.010000 0.977673
vt 0.033404 0.010000
vt 0.078547 0.010000
vt 0.033404 0.039759
vt 0.533459 0.405841
vt 0.533459 0.457718
vt 0.503700 0.405841
vt 0.010000 0.503700
vt 0.066015 0.503700
vt 0.010000 0.533459
vt 0.533459 0.116493
vt 0.533459 0.161636
vt 0.503700 0.116493
vt 0.651144 0.144966
vt 0.651144 0.093089
vt 0.680904 0.144966
vt 0.548001 0.066015
vt 0.548001 0.010000
vt 0.577760 0.066015
vt 0.503700 0.055143
vt 0.503700 0.010000
vt 0.533459 0.055143
vt 0.599572 0.235326
vt 0.599572 0.183449
vt 0.629332 0.235326
vt 0.282645 0.039111
vt 0.290511 0.010410
vt 0.344922 0.025322
vt 0.039111 0.223784
vt 0.010410 0.215918
vt 0.054023 0.169373
vt 0.334779 0.453349
vt 0.342317 0.482138
vt 0.287739 0.496429
vt 0.122631 0.081010
vt 0.337056 0.054023
vt 0.164112 0.024291
vt 0.218690 0.010000
vt 0.226228 0.038789
vt 0.171650 0.053080
vt 0.099512 0.444841
vt 0.059847 0.404721
vt 0.120675 0.423918
vt 0.081010 0.383798
vt 0.053080 0.334779
vt 0.024291 0.342317
vt 0.010000 0.287739
vt 0.038789 0.280201
vt 0.169373 0.452406
vt 0.223784 0.467318
vt 0.215918 0.496019
vt 0.482138 0.164112
vt 0.496429 0.218690
vt 0.467640 0.226228
vt 0.453349 0.171650
vt 0.280201 0.467640
vt 0.496019 0.290511
vt 0.481107 0.344922
vt 0.467318 0.282645
vt 0.452406 0.337056
vt 0.444841 0.406917
vt 0.404721 0.446582
vt 0.423918 0.385754
vt 0.383798 0.425419
vt 0.082510 0.120675
vt 0.061588 0.099512
vt 0.101708 0.059847
vt 0.385754 0.082510
vt 0.425419 0.122631
vt 0.446582 0.101708
vt 0.171216 0.946833
vt 0.335084 0.546866
vt 0.425113 0.877752
vt 0.218176 0.990000
vt 0.163625 0.975608
vt 0.225767 0.961225
vt 0.082201 0.879073
vt 0.053804 0.830323
vt 0.081187 0.615948
vt 0.122248 0.918813
vt 0.101286 0.939937
vt 0.424099 0.614626
vt 0.452496 0.663376
vt 0.453134 0.828784
vt 0.038775 0.719467
vt 0.010000 0.711876
vt 0.024392 0.657324
vt 0.344437 0.974911
vt 0.289998 0.989723
vt 0.282185 0.961008
vt 0.446237 0.898714
vt 0.406498 0.938760
vt 0.385374 0.917799
vt 0.336624 0.946196
vt 0.169677 0.547504
vt 0.224116 0.532692
vt 0.120927 0.575901
vt 0.099802 0.554939
vt 0.384052 0.574887
vt 0.405014 0.553763
vt 0.025089 0.838136
vt 0.010277 0.783697
vt 0.038992 0.775884
vt 0.053167 0.664916
vt 0.288124 0.503700
vt 0.342676 0.518091
vt 0.280533 0.532475
vt 0.216302 0.503977
vt 0.496300 0.781824
vt 0.481908 0.836375
vt 0.467525 0.774233
vt 0.467308 0.717815
vt 0.496024 0.710002
vt 0.533159 0.479530
vt 0.533159 0.509290
vt 0.503700 0.479530
vt 0.724905 0.093089
vt 0.724905 0.122848
vt 0.695445 0.093089
vt 0.555271 0.183448
vt 0.585031 0.183448
vt 0.555271 0.239297
vt 0.582892 0.453205
vt 0.582892 0.482964
vt 0.555271 0.453205
vt 0.723066 0.137390
vt 0.723066 0.167149
vt 0.695445 0.137390
vt 0.606843 0.093089
vt 0.636603 0.093089
vt 0.606843 0.145452
vt 0.010000 0.039759
vt 0.010000 0.010000
vt 0.464085 0.874023
vt 0.464085 0.844264
vt 0.487490 0.874023
vt 0.039759 0.103740
vt 0.010000 0.103740
vt 0.039759 0.059370
vt 0.761935 0.010000
vt 0.761935 0.039759
vt 0.732475 0.010000
vt 0.584731 0.401633
vt 0.584731 0.431392
vt 0.555271 0.401633
vt 0.555271 0.093089
vt 0.585031 0.093089
vt 0.555271 0.148938
vt 0.730036 0.183448
vt 0.730036 0.213208
vt 0.702416 0.183448
vt 0.767067 0.093089
vt 0.767067 0.122848
vt 0.739446 0.093089
vt 0.555271 0.261275
vt 0.585031 0.261275
vt 0.555271 0.313638
vt 0.503700 0.093089
vt 0.533459 0.093089
vt 0.385259 0.981189
vt 0.355500 0.981189
vt 0.385259 0.957785
vt 0.039759 0.597427
vt 0.010000 0.597427
vt 0.039759 0.553057
vt 0.606843 0.291035
vt 0.606843 0.261275
vt 0.636302 0.291035
vt 0.650844 0.291035
vt 0.650844 0.261275
vt 0.680303 0.291035
vt 0.622061 0.065849
vt 0.592302 0.065849
vt 0.622061 0.010000
vt 0.503700 0.553591
vt 0.503700 0.523831
vt 0.531320 0.553591
vt 0.606543 0.431392
vt 0.606543 0.401633
vt 0.634164 0.431392
vt 0.533459 0.391299
vt 0.503700 0.391299
vt 0.533459 0.338937
vt 0.533459 0.078547
vt 0.503700 0.078547
vt 0.380324 0.527104
vt 0.350564 0.527104
vt 0.380324 0.503700
vt 0.585031 0.379821
vt 0.555271 0.379821
vt 0.585031 0.335451
vt 0.651144 0.213208
vt 0.651144 0.183448
vt 0.680604 0.213208
vt 0.606843 0.365210
vt 0.606843 0.335451
vt 0.636302 0.365210
vt 0.533459 0.317124
vt 0.503700 0.317124
vt 0.533459 0.261275
vt 0.811368 0.010000
vt 0.811368 0.039759
vt 0.783747 0.010000
vt 0.658115 0.365210
vt 0.658115 0.335451
vt 0.685735 0.365210
vt 0.666362 0.062363
vt 0.636603 0.062363
vt 0.666362 0.010000
vt 0.463633 0.010000
vt 0.463633 0.039759
vt 0.487490 0.543185
vt 0.487490 0.572945
vt 0.464085 0.543185
vt 0.454330 0.059370
vt 0.484089 0.059370
vt 0.454330 0.103740
vt 0.533459 0.183448
vt 0.395086 0.010000
vt 0.688174 0.061877
vt 0.066015 0.977673
vt 0.078547 0.039759
vt 0.503700 0.457718
vt 0.066015 0.533459
vt 0.503700 0.161636
vt 0.680904 0.093089
vt 0.577760 0.010000
vt 0.533459 0.010000
vt 0.629332 0.183448
vt 0.025322 0.161507
vt 0.161507 0.481107
vt 0.406917 0.061588
vt 0.061240 0.900198
vt 0.060063 0.594986
vt 0.445061 0.593502
vt 0.161864 0.518788
vt 0.481212 0.655563
vt 0.503700 0.509290
vt 0.695445 0.122848
vt 0.585031 0.239297
vt 0.555271 0.482964
vt 0.695445 0.167149
vt 0.636603 0.145452
vt 0.487490 0.844264
vt 0.010000 0.059370
vt 0.732475 0.039759
vt 0.555271 0.431392
vt 0.585031 0.148938
vt 0.702416 0.213208
vt 0.739446 0.122848
vt 0.585031 0.313638
vt 0.355500 0.957785
vt 0.010000 0.553057
vt 0.636302 0.261275
vt 0.680303 0.261275
vt 0.592302 0.010000
vt 0.531320 0.523831
vt 0.634164 0.401633
vt 0.503700 0.338937
vt 0.350564 0.503700
vt 0.555271 0.335451
vt 0.680604 0.183448
vt 0.636302 0.335451
vt 0.503700 0.261275
vt 0.783747 0.039759
vt 0.685735 0.335451
vt 0.636603 0.010000
vt 0.464085 0.572945
vt 0.484089 0.103740
vn 0.992854 0.000000 -0.119338
vn 0.800152 0.000000 -0.599797
vn 0.393043 0.000001 -0.919520
vn 0.393043 -0.000000 -0.919520
vn -0.119338 0.000000 -0.992854
vn -0.599798 0.000000 -0.800152
vn -0.599797 0.000000 -0.800152
vn -0.919520 0.000000 -0.393043
vn -0.992854 0.000000 0.119338
vn -0.800152 0.000000 0.599797
vn -0.393043 0.000000 0.919520
vn 0.119337 0.000000 0.992854
vn 0.119339 0.000000 0.992854
vn 0.119338 0.000000 0.992854
vn 0.599798 0.000000 0.800151
vn 0.599797 0.000000 0.800152
vn 0.599798 0.000000 0.800152
vn 0.919520 0.000000 0.393043
vn 0.000000 1.000000 0.000000
vn -0.000000 1.000000 0.000001
vn -0.000000 -1.000000 -0.000000
vn 0.989901 0.000000 0.141757
vn -0.989901 0.000000 -0.141757
vn 0.141705 0.000000 -0.989909
vn 0.928112 0.000000 -0.372301
vn -0.928112 0.000001 0.372301
vn -0.928112 0.000000 0.372301
vn -0.372278 0.000000 -0.928121
vn 0.617645 0.000000 -0.786457
vn -0.617568 -0.000000 0.786518
vn -0.617567 -0.000000 0.786518
vn -0.786412 0.000000 -0.617702
vn 0.141600 0.000000 -0.989924
vn 0.141601 0.000000 -0.989924
vn -0.141757 0.000000 0.989902
vn -0.141757 0.000000 0.989901
vn -0.989909 0.000000 -0.141705
vn -0.372163 0.000000 -0.928168
vn 0.372165 0.000000 0.928167
vn 0.372164 0.000000 0.928167
vn -0.928121 0.000000 0.372278
vn -0.786457 0.000000 -0.617645
vn 0.786457 0.000000 0.617645
vn -0.617650 0.000000 0.786453
vn -0.617649 0.000000 0.786454
vn -0.989924 0.000000 -0.141601
vn -0.989924 0.000000 -0.141600
vn -0.141707 0.000000 0.989909
vn -0.141706 0.000000 0.989909
vn -0.928145 0.000000 0.372219
vn -0.928145 0.000000 0.372218
vn 0.928145 0.000000 -0.372218
vn 0.372277 0.000000 0.928122
vn 0.372278 0.000000 0.928121
vn -0.617645 0.000000 0.786457
vn 0.617745 0.000000 -0.786378
vn 0.617744 0.000000 -0.786380
vn 0.786453 0.000000 0.617650
vn -0.141761 0.000000 0.989901
vn -0.141759 0.000000 0.989901
vn 0.141758 0.000000 -0.989901
vn 0.141759 0.000000 -0.989901
vn 0.989909 0.000000 0.141705
vn 0.372357 0.000000 0.928090
vn 0.372356 0.000000 0.928090
vn -0.372356 0.000000 -0.928090
vn 0.928121 0.000000 -0.372278
vn 0.786458 0.000000 0.617644
vn 0.786457 0.000000 0.617644
vn -0.786441 0.000001 -0.617666
vn -0.786441 0.000000 -0.617666
vn 0.617702 0.000000 -0.786412
vn 0.393043 -0.000001 -0.919520
vn -0.800152 0.000000 0.599798
vn 0.119340 0.000000 0.992853
vn 0.599796 0.000000 0.800153
vn -0.928112 -0.000001 0.372301
vn 0.141602 0.000000 -0.989924
vn -0.141758 0.000000 0.989901
vn 0.372163 0.000000 0.928168
vn -0.928146 0.000000 0.372217
vn 0.928145 0.000000 -0.372219
vn 0.617742 0.000000 -0.786381
vn 0.786454 0.000000 0.617649
vn 0.372355 0.000000 0.928090
vn 0.786457 0.000001 0.617645
vn -0.786441 -0.000001 -0.617666
vn 0.617702 0.000001 -0.786412
usemtl Material__25
s 1
f 1/1/1 2/2/1 4/3/1
f 5/4/2 6/5/2 8/6/2
f 9/7/3 10/8/4 12/9/4
f 13/10/5 14/11/5 16/12/5
f 17/13/6 18/14/7 20/15/6
f 21/16/8 22/17/8 24/18/8
f 25/19/9 26/20/9 28/21/9
f 29/22/10 30/23/10 32/24/10
f 33/25/11 34/26/11 36/27/11
f 37/28/12 38/29/13 40/30/14
f 41/31/15 42/32/16 44/33/17
f 45/34/18 46/35/18 48/36/18
f 1/37/19 49/38/19 50/39/19
f 37/40/19 51/41/19 42/42/19
f 21/43/19 53/44/19 54/45/19
f 46/46/19 1/37/19 6/47/19
f 55/48/19 56/49/19 2/50/19
f 1/37/19 46/46/19 45/51/19
f 57/52/19 58/53/19 29/54/19
f 29/54/19 34/55/20 33/56/19
f 59/57/19 60/58/19 33/56/19
f 33/56/19 38/59/19 30/60/19
f 30/60/19 37/40/19 25/61/19
f 25/61/19 61/62/19 30/60/19
f 63/63/19 64/64/19 14/65/19
f 9/66/19 14/65/19 26/67/19
f 65/68/19 66/69/19 13/70/19
f 13/70/19 18/71/19 14/65/19
f 67/72/19 68/73/19 17/74/19
f 17/74/19 22/75/19 14/65/19
f 25/61/19 42/42/19 41/76/19
f 26/67/19 41/76/19 9/66/19
f 69/77/19 70/78/19 46/46/19
f 41/76/19 46/46/19 5/79/19
f 10/80/19 5/79/19 72/81/19
f 12/82/21 36/83/21 23/84/21
f 73/85/21 74/86/21 15/87/21
f 8/88/21 7/89/21 47/90/21
f 11/91/21 75/92/21 8/88/21
f 32/93/21 31/94/21 24/95/21
f 3/96/21 77/97/21 78/98/21
f 79/99/21 80/100/21 16/101/21
f 81/102/21 82/103/21 20/104/21
f 23/84/21 20/104/21 12/82/21
f 12/82/21 19/105/21 15/87/21
f 43/106/21 40/107/21 36/83/21
f 44/108/21 36/83/21 12/82/21
f 44/108/21 47/90/21 84/109/21
f 35/110/21 85/111/21 32/93/21
f 87/112/21 88/113/21 4/114/21
f 47/90/21 4/114/21 48/115/21
f 89/116/21 90/117/21 36/83/21
f 39/118/21 36/83/21 40/107/21
f 40/107/21 43/106/21 92/119/21
f 35/110/21 32/93/21 24/95/21
f 47/90/21 12/82/21 11/91/21
f 93/120/21 94/121/21 24/95/21
f 27/122/21 24/95/21 28/123/21
f 28/123/21 31/94/21 96/124/21
f 74/125/22 63/126/22 12/127/22
f 64/128/23 73/129/23 14/130/23
f 73/131/24 64/132/24 74/133/24
f 80/134/25 65/135/25 16/136/25
f 66/137/26 79/138/27 18/139/27
f 79/140/28 66/141/28 80/142/28
f 82/143/29 67/144/29 20/15/29
f 68/145/30 81/146/31 22/147/31
f 81/148/32 68/149/32 82/150/32
f 94/151/33 53/152/34 24/153/34
f 54/154/35 93/155/36 26/156/36
f 93/157/37 54/158/37 94/159/37
f 96/160/38 61/161/38 28/162/38
f 62/163/39 95/164/40 30/165/40
f 95/166/41 62/167/41 96/168/41
f 86/169/42 57/170/42 32/24/42
f 58/171/43 85/172/43 34/173/43
f 85/174/44 58/175/44 86/176/45
f 90/177/46 59/178/47 36/179/47
f 60/180/22 89/181/22 38/182/22
f 89/183/48 60/184/48 90/185/49
f 92/186/50 51/187/51 40/188/51
f 52/189/52 91/190/52 42/191/52
f 91/192/53 52/193/53 92/194/54
f 84/195/55 69/196/55 44/33/55
f 70/197/56 83/198/57 46/199/57
f 83/200/58 70/201/58 84/202/58
f 78/203/59 55/204/60 48/205/60
f 56/206/61 77/207/62 2/208/62
f 77/209/63 56/210/63 78/211/63
f 1/212/64 4/213/65 49/214/65
f 50/215/66 87/216/66 6/217/66
f 87/218/67 50/219/67 88/220/67
f 76/221/68 71/222/69 8/6/69
f 72/223/70 75/224/71 10/225/71
f 75/226/72 72/227/72 76/228/72
f 2/2/1 3/229/1 4/3/1
f 6/5/2 7/230/2 8/6/2
f 10/8/4 11/231/73 12/9/4
f 14/11/5 15/232/5 16/12/5
f 18/14/7 19/233/7 20/15/6
f 22/17/8 23/234/8 24/18/8
f 26/20/9 27/235/9 28/21/9
f 30/23/10 31/236/74 32/24/10
f 34/26/11 35/237/11 36/27/11
f 38/29/13 39/238/75 40/30/14
f 42/32/16 43/239/76 44/33/17
f 46/35/18 47/240/18 48/36/18
f 6/47/19 1/37/19 50/39/19
f 51/41/19 52/241/19 42/42/19
f 26/67/19 21/43/19 54/45/19
f 5/79/19 46/46/19 6/47/19
f 45/51/19 55/48/19 2/50/19
f 2/50/19 1/37/19 45/51/19
f 58/53/19 34/55/20 29/54/19
f 30/60/19 29/54/19 33/56/19
f 60/58/19 38/59/19 33/56/19
f 38/59/19 37/40/19 30/60/19
f 37/40/19 42/42/19 25/61/19
f 61/62/19 62/242/19 30/60/19
f 9/66/19 63/63/19 14/65/19
f 14/65/19 21/43/19 26/67/19
f 66/69/19 18/71/19 13/70/19
f 18/71/19 17/74/19 14/65/19
f 68/73/19 22/75/19 17/74/19
f 22/75/19 21/43/19 14/65/19
f 26/67/19 25/61/19 41/76/19
f 41/76/19 10/80/19 9/66/19
f 41/76/19 69/77/19 46/46/19
f 10/80/19 41/76/19 5/79/19
f 5/79/19 71/243/19 72/81/19
f 36/83/21 24/95/21 23/84/21
f 74/86/21 12/82/21 15/87/21
f 7/89/21 4/114/21 47/90/21
f 75/92/21 76/244/21 8/88/21
f 31/94/21 28/123/21 24/95/21
f 48/115/21 3/96/21 78/98/21
f 19/105/21 79/99/21 16/101/21
f 23/84/21 81/102/21 20/104/21
f 20/104/21 19/105/21 12/82/21
f 19/105/21 16/101/21 15/87/21
f 44/108/21 43/106/21 36/83/21
f 47/90/21 44/108/21 12/82/21
f 47/90/21 83/245/21 84/109/21
f 85/111/21 86/246/21 32/93/21
f 7/89/21 87/112/21 4/114/21
f 4/114/21 3/96/21 48/115/21
f 39/118/21 89/116/21 36/83/21
f 43/106/21 91/247/21 92/119/21
f 36/83/21 35/110/21 24/95/21
f 8/88/21 47/90/21 11/91/21
f 27/122/21 93/120/21 24/95/21
f 31/94/21 95/248/21 96/124/21
f 63/126/22 9/249/22 12/127/22
f 73/129/23 15/250/23 14/130/23
f 64/132/24 63/251/24 74/133/24
f 65/135/25 13/252/25 16/136/25
f 79/138/27 19/253/77 18/139/27
f 66/141/28 65/254/28 80/142/28
f 67/144/29 17/13/29 20/15/29
f 81/146/31 23/255/31 22/147/31
f 68/149/32 67/256/32 82/150/32
f 53/152/34 21/257/78 24/153/34
f 93/155/36 27/258/79 26/156/36
f 54/158/37 53/259/37 94/159/37
f 61/161/38 25/260/38 28/162/38
f 95/164/40 31/261/80 30/165/40
f 62/167/41 61/262/41 96/168/41
f 57/170/42 29/22/42 32/24/42
f 85/172/43 35/263/43 34/173/43
f 58/175/44 57/264/45 86/176/45
f 59/178/47 33/265/47 36/179/47
f 89/181/22 39/266/22 38/182/22
f 60/184/48 59/267/49 90/185/49
f 51/187/51 37/268/81 40/188/51
f 91/190/52 43/269/82 42/191/52
f 52/193/53 51/270/54 92/194/54
f 69/196/55 41/31/55 44/33/55
f 83/198/57 47/271/83 46/199/57
f 70/201/58 69/272/84 84/202/58
f 55/204/60 45/273/36 48/205/60
f 77/207/62 3/274/62 2/208/62
f 56/210/63 55/275/63 78/211/63
f 4/213/65 88/276/85 49/214/65
f 87/216/66 7/277/66 6/217/66
f 50/219/67 49/278/67 88/220/67
f 71/222/69 5/4/86 8/6/69
f 75/224/71 11/279/87 10/225/71
f 72/227/72 71/280/88 76/228/72
